grf
version=1
nRows=26
nColumns=19
inDegrees=yes
endheader
time	ground_force_1_vx	ground_force_1_vy	ground_force_1_vz	ground_force_1_px	ground_force_1_py	ground_force_1_pz	ground_moment_1_mx	ground_moment_1_my	ground_moment_1_mz	ground_force_2_vx	ground_force_2_vy	ground_force_2_vz	ground_force_2_px	ground_force_2_py	ground_force_2_pz	ground_moment_2_mx	ground_moment_2_my	ground_moment_2_mz
3.460000	-11.011603	1525.090667	-387.369056	0.181905	0.000000	-0.790174	0.000000	10.637664	0.000000	-23.194866	1598.116334	397.982299	0.201098	0.000000	-1.597504	-0.000000	-22.106460	-0.000000
3.461000	-10.437260	1525.975464	-387.037519	0.183036	0.000000	-0.789779	0.000000	10.655479	0.000000	-23.507125	1598.318977	397.935592	0.200263	0.000000	-1.597137	-0.000000	-22.112645	-0.000000
3.462000	-9.836127	1526.864088	-386.699207	0.182068	0.000000	-0.789841	0.000000	10.672804	0.000000	-23.800013	1598.543003	397.892704	0.200707	0.000000	-1.597601	-0.000000	-22.118392	-0.000000
3.463000	-9.209460	1527.754671	-386.354257	0.182086	0.000000	-0.790985	0.000000	10.689555	0.000000	-24.071916	1598.791948	397.852857	0.200967	0.000000	-1.597243	-0.000000	-22.123672	-0.000000
3.464000	-8.558630	1528.646495	-386.002776	0.182319	0.000000	-0.790201	0.000000	10.705676	0.000000	-24.321351	1599.069444	397.815243	0.200856	0.000000	-1.597081	-0.000000	-22.128472	-0.000000
3.465000	-7.885059	1529.539177	-385.644834	0.181746	0.000000	-0.791279	0.000000	10.721126	0.000000	-24.547019	1599.379804	397.779085	0.201011	0.000000	-1.598117	-0.000000	-22.132772	-0.000000
3.466000	-7.190225	1530.432671	-385.280532	0.182197	0.000000	-0.789914	0.000000	10.735865	0.000000	-24.747797	1599.727761	397.743702	0.199354	0.000000	-1.598273	-0.000000	-22.136553	-0.000000
3.467000	-6.475738	1531.327226	-384.910097	0.180375	0.000000	-0.790131	0.000000	10.749839	0.000000	-24.922683	1600.116923	397.708463	0.200727	0.000000	-1.597563	-0.000000	-22.139846	-0.000000
3.468000	-5.743446	1532.222704	-384.533966	0.181412	0.000000	-0.790981	0.000000	10.763000	0.000000	-25.070732	1600.548899	397.672630	0.200630	0.000000	-1.598042	-0.000000	-22.142764	-0.000000
3.469000	-4.995383	1533.118115	-384.152819	0.181786	0.000000	-0.791087	0.000000	10.775340	0.000000	-25.191079	1601.024541	397.635291	0.201099	0.000000	-1.597130	-0.000000	-22.145472	-0.000000
3.470000	-4.233568	1534.011985	-383.767623	0.181488	0.000000	-0.790792	0.000000	10.786872	0.000000	-25.283024	1601.545470	397.595491	0.201083	0.000000	-1.597362	-0.000000	-22.148149	-0.000000
3.471000	-3.459877	1534.902893	-383.379659	0.181421	0.000000	-0.791078	0.000000	10.797602	0.000000	-25.346117	1602.114204	397.552466	0.200834	0.000000	-1.597730	-0.000000	-22.150966	-0.000000
3.472000	-2.676087	1535.789823	-382.990425	0.181488	0.000000	-0.792003	0.000000	10.807524	0.000000	-25.380165	1602.733900	397.505789	0.201242	0.000000	-1.598065	0.000000	-22.154073	-0.000000
3.473000	-1.883958	1536.672392	-382.601503	0.179946	0.000000	-0.790877	0.000000	10.816644	0.000000	-25.385159	1603.408297	397.455361	0.201132	0.000000	-1.597821	0.000000	-22.157595	-0.000000
3.474000	-1.085261	1537.550595	-382.214496	0.180745	0.000000	-0.791772	0.000000	10.825000	0.000000	-25.361203	1604.141179	397.401260	0.200682	0.000000	-1.597732	0.000000	-22.161625	-0.000000
3.475000	-0.281769	1538.424480	-381.831002	0.181304	0.000000	-0.791218	0.000000	10.832691	0.000000	-25.308497	1604.935744	397.343595	0.201140	0.000000	-1.598033	0.000000	-22.166225	-0.000000
3.476000	0.524775	1539.294417	-381.452606	0.180604	0.000000	-0.791502	0.000000	10.839838	0.000000	-25.227344	1605.794492	397.282526	0.201285	0.000000	-1.598159	0.000000	-22.171444	-0.000000
3.477000	1.332701	1540.161531	-381.080860	0.180497	0.000000	-0.791689	0.000000	10.846543	0.000000	-25.118155	1606.719080	397.218349	0.201170	0.000000	-1.597331	0.000000	-22.177320	-0.000000
3.478000	2.140441	1541.027599	-380.717245	0.180436	0.000000	-0.791130	0.000000	10.852869	0.000000	-24.981423	1607.710107	397.151467	0.200616	0.000000	-1.597748	0.000000	-22.183878	-0.000000
3.479000	2.946566	1541.894546	-380.363089	0.180362	0.000000	-0.791868	0.000000	10.858858	0.000000	-24.817691	1608.767513	397.082318	0.200713	0.000000	-1.597636	0.000000	-22.191136	-0.000000
3.480000	3.749827	1542.764110	-380.019518	0.180017	0.000000	-0.792184	0.000000	10.864557	0.000000	-24.627535	1609.891377	397.011351	0.200581	0.000000	-1.597392	0.000000	-22.199117	-0.000000
3.481000	4.549181	1543.637632	-379.687462	0.180688	0.000000	-0.791817	0.000000	10.870021	0.000000	-24.411573	1611.082358	396.939000	0.201190	0.000000	-1.597586	0.000000	-22.207859	-0.000000
3.482000	5.343792	1544.515463	-379.367679	0.180431	0.000000	-0.792479	0.000000	10.875311	0.000000	-24.170481	1612.341434	396.865619	0.201420	0.000000	-1.596643	0.000000	-22.217398	-0.000000
3.483000	6.133054	1545.396250	-379.060727	0.180729	0.000000	-0.792433	0.000000	10.880465	0.000000	-23.905060	1613.669084	396.791454	0.201151	0.000000	-1.597510	0.000000	-22.227758	-0.000000
3.484000	6.916586	1546.276816	-378.766921	0.179722	0.000000	-0.791970	0.000000	10.885488	0.000000	-23.616300	1615.064395	396.716712	0.200750	0.000000	-1.597224	0.000000	-22.238946	-0.000000
3.485000	7.694144	1547.152893	-378.486247	0.179680	0.000000	-0.792495	0.000000	10.890360	0.000000	-23.305372	1616.524992	396.641604	0.200788	0.000000	-1.598169	0.000000	-22.250943	-0.000000
